<svg xmlns="http://www.w3.org/2000/svg" width="424.2753" height="406.3564" viewBox="0 0 424.2753 406.3564">
  <g id="katman_2" data-name="katman 2">
    <g id="katman_1-2" data-name="katman 1">
      <g id="hGzkKf">
        <g>
          <path d="M64.5673,339.0277C65,313.0541,75.016,291.75,95.4155,275.4115c21.6312-17.3253,38.7164-38.4574,52.2235-62.5984,10.3635-18.5224,25.273-31.6761,45.95-37.59,24.5467-7.0208,48.978,1.8009,63.3169,23.0409,11.6148,17.205,24.978,32.9359,39.1726,48.0148,12.4936,13.2718,25.6133,25.9382,37.8994,39.4131,25.3877,27.8439,22.8372,64.4922,9.9787,87.4578-8.0121,14.31-21.0317,21.9168-36.6256,25.3335a150.069,150.069,0,0,1-70.8234-1.4977c-17.9919-4.6715-36.1945-3.7147-54.2375-.071-12.3571,2.4954-24.4977,6.1255-36.8983,8.3311-33.1907,5.9035-65.0917-12.1861-76.91-43.1782A60.0222,60.0222,0,0,1,64.5673,339.0277Z"/>
          <path d="M337.3136,95.7015c-1.2843,24.2654-9.92,46.0271-29.2576,62.2694-18.6249,15.6438-42.4909,17.7822-62.73.5118-11.3011-9.6433-17.3507-22.6931-20.5672-37.0795a99.9292,99.9292,0,0,1-.2768-40.7107c3.43-18.2649,6.5886-36.5847,14.2229-53.7311a77.6732,77.6732,0,0,1,8.1271-14.6882C255.01,1.1666,264.9639-2.1433,278.2631,1.6816c11.0562,3.18,20.03,9.6188,27.3257,18.218,16.2608,19.1656,27.506,40.8016,30.9738,66.0128C336.9756,88.9142,337.0368,91.9644,337.3136,95.7015Z"/>
          <path d="M201.71,100.6114c-.1215,18.1862-4.2089,35.1681-15.4549,49.9074-16.9008,22.1506-44.4735,26.1777-66.9912,9.79-14.1663-10.31-22.6062-24.5644-28.0712-40.8641-6.7593-20.16-4.6169-39.8755,3.1429-59.2253C102.1964,40.617,113.6909,23.49,129.7605,9.6122A39.28,39.28,0,0,1,153.728.0522C166.0113-.672,173.8854,6.22,179.8354,15.8829c6.5489,10.6354,10.6787,22.302,13.597,34.39,3.699,15.3223,7.2811,30.6756,8.2671,46.4833C201.7794,98.0368,201.71,99.3262,201.71,100.6114Z"/>
          <path d="M.0217,181.2686c.2751-21.81,5.3477-42.15,19.1133-59.5828,6.4531-8.1719,14.6109-13.564,25.6862-12.16,7.097.9,12.84,4.7108,18.1809,9.2153C74.0773,128.0825,82.0576,139.8855,89.39,152.16a126.59,126.59,0,0,1,14.9951,36.4731c3.5937,15.5771,2.6294,30.9083-4.6671,45.402-11.1411,22.1306-36.3462,29.705-58.5813,17.6757C21.7357,241.215,8.2017,225.8836,2.626,204.1827A84.2089,84.2089,0,0,1,.0217,181.2686Z"/>
          <path d="M424.2743,181.56c.0825,19.9908-5.26,38.082-18.9451,53.1259a74.1632,74.1632,0,0,1-27.8245,19.5809c-22.8312,8.9628-46.2286-1.7687-55.1612-25.2893-5.7666-15.1843-5.6946-30.6047-.8791-46.043A148.3081,148.3081,0,0,1,358.35,121.33a47.6513,47.6513,0,0,1,12.3988-9.0693c9.8088-4.9042,20.0677-3.7015,28.4517,3.4155,9.9848,8.4758,15.4793,19.7782,19.6886,31.7971A103.0446,103.0446,0,0,1,424.2743,181.56Z"/>
        </g>
      </g>
    </g>
  </g>
</svg>
